<?xml version="1.0" standalone="no"?>
<!DOCTYPE svg PUBLIC "-//W3C//DTD SVG 20010904//EN"
 "http://www.w3.org/TR/2001/REC-SVG-20010904/DTD/svg10.dtd">
<svg version="1.0" xmlns="http://www.w3.org/2000/svg"
 width="700.000000pt" height="700.000000pt" viewBox="0 0 700.000000 700.000000"
 preserveAspectRatio="xMidYMid meet">
<metadata>
Created by potrace 1.11, written by Peter Selinger 2001-2013
</metadata>
<g transform="translate(0.000000,700.000000) scale(0.100000,-0.100000)"
fill="#000000" stroke="none">
<path d="M2934 6840 c-118 -8 -262 -42 -281 -67 -6 -8 -31 -17 -55 -19 -51 -5
-228 -59 -279 -86 -20 -10 -46 -18 -58 -18 -12 0 -21 -6 -21 -15 0 -8 -6 -15
-12 -16 -7 0 -33 -14 -58 -29 -25 -16 -61 -38 -80 -49 -32 -17 -85 -55 -175
-123 -16 -13 -51 -44 -77 -70 -26 -27 -52 -48 -58 -48 -5 0 -10 -6 -10 -14 0
-12 -27 -45 -106 -127 -19 -19 -34 -41 -34 -48 0 -6 -7 -14 -15 -17 -8 -4 -15
-11 -15 -16 0 -6 -13 -27 -30 -48 -16 -21 -30 -45 -30 -54 0 -9 -5 -16 -11
-16 -5 0 -17 -15 -25 -32 -17 -38 -34 -67 -52 -86 -6 -7 -12 -22 -12 -31 0
-10 -7 -24 -15 -31 -8 -7 -17 -27 -21 -46 -3 -18 -12 -38 -20 -45 -8 -6 -14
-20 -14 -30 0 -11 -4 -19 -8 -19 -5 0 -15 -19 -21 -42 -7 -24 -19 -59 -27 -78
-36 -91 -83 -308 -83 -392 -1 -26 -6 -48 -13 -50 -20 -7 -33 -370 -19 -513 6
-65 15 -122 20 -125 4 -3 11 -23 15 -45 4 -22 18 -63 31 -90 13 -28 27 -63 30
-77 4 -15 13 -29 21 -32 8 -3 14 -11 14 -18 0 -20 40 -92 56 -101 8 -4 14 -23
14 -41 0 -29 -4 -34 -30 -39 -16 -4 -40 -16 -52 -27 -56 -51 -88 -86 -88 -95
0 -6 -9 -16 -20 -23 -12 -7 -20 -23 -20 -40 -1 -15 -7 -38 -15 -52 -19 -34
-20 -160 0 -197 8 -15 17 -40 20 -55 3 -15 11 -33 19 -40 7 -8 21 -28 29 -45
9 -17 23 -33 32 -36 8 -4 15 -13 15 -22 0 -8 4 -15 9 -15 6 0 25 -14 43 -30
18 -17 38 -30 45 -30 6 0 16 -6 20 -12 11 -18 147 -82 205 -98 57 -15 162 -10
203 11 21 10 30 22 30 38 0 24 -1 24 -107 25 -86 1 -110 5 -126 19 -10 9 -29
17 -41 17 -13 0 -37 10 -54 22 -18 13 -44 30 -58 38 -63 36 -86 55 -109 87
-14 19 -31 41 -39 50 -26 27 -54 87 -62 130 -10 52 5 148 26 169 8 8 15 22 15
31 0 15 55 73 70 73 4 0 22 15 39 33 31 30 36 32 124 37 123 7 213 -6 254 -36
17 -13 36 -24 42 -24 21 0 70 -60 81 -99 12 -44 33 -53 50 -22 11 21 3 41 -37
98 -13 17 -23 38 -23 46 0 8 -7 20 -15 27 -8 7 -17 28 -21 46 -3 19 -12 40
-18 47 -19 19 -46 94 -46 127 0 17 -4 30 -8 30 -13 0 -32 72 -32 119 0 26 -4
40 -10 36 -5 -3 -10 -3 -10 2 0 4 -7 40 -15 78 -19 91 -35 256 -35 370 0 111
16 255 30 269 5 5 10 20 10 32 0 13 7 29 15 38 8 8 15 25 15 38 1 23 21 58 34
58 10 0 7 -108 -4 -112 -30 -10 -40 -395 -14 -533 8 -44 19 -109 24 -144 4
-35 20 -100 34 -145 14 -44 30 -100 36 -123 6 -24 14 -43 19 -43 5 0 11 -19
14 -43 7 -46 14 -66 52 -137 l25 -45 -6 85 c-6 100 8 276 25 293 8 8 19 7 41
-6 36 -22 62 -11 79 30 19 45 41 84 80 142 20 29 41 61 46 70 34 57 210 210
243 211 6 0 12 3 12 8 0 4 12 12 28 19 132 56 155 64 165 54 16 -16 54 -13 61
5 4 10 -5 26 -24 44 -20 19 -30 38 -30 58 0 19 -9 39 -25 53 -13 13 -25 29
-25 35 0 6 23 35 50 64 28 29 50 57 50 61 0 5 14 22 30 39 17 17 30 37 30 45
0 8 8 20 18 27 9 7 26 29 36 48 11 19 24 40 28 45 27 33 58 88 58 104 0 10 9
26 20 36 11 10 20 22 20 27 0 5 14 38 30 73 17 35 30 67 30 71 0 4 9 25 19 48
10 23 25 61 32 86 7 25 16 49 21 55 4 5 8 17 8 26 0 9 7 30 15 45 8 16 15 56
15 89 0 125 24 173 50 103 6 -18 20 -52 30 -74 10 -23 22 -59 26 -80 3 -22 11
-44 16 -51 5 -7 16 -42 24 -79 7 -37 18 -70 22 -73 5 -3 12 -22 15 -41 4 -19
11 -53 16 -75 6 -22 17 -71 26 -110 9 -38 21 -88 26 -110 18 -70 30 -133 33
-172 2 -21 4 -44 5 -50 2 -23 37 -14 51 12 12 22 11 36 -2 98 -20 87 -36 170
-50 257 -6 36 -17 81 -24 100 -8 19 -18 60 -23 90 -5 30 -19 80 -31 110 -32
79 -32 98 -4 92 14 -2 27 -15 33 -33 5 -16 17 -32 26 -35 8 -3 15 -10 15 -15
0 -15 47 -78 54 -72 3 3 11 -8 17 -25 6 -18 15 -32 20 -32 5 0 12 -8 16 -17 3
-10 19 -34 35 -54 15 -20 28 -42 28 -48 0 -6 9 -16 20 -23 11 -7 20 -19 20
-26 0 -8 9 -26 21 -40 11 -15 54 -79 95 -142 41 -63 79 -116 84 -118 6 -2 10
-11 10 -20 0 -9 9 -28 20 -42 11 -14 20 -30 20 -36 0 -6 15 -31 33 -55 28 -39
32 -51 30 -101 -2 -63 7 -71 60 -57 16 5 56 2 95 -6 37 -8 82 -15 100 -15 18
0 31 -4 28 -9 -6 -9 59 -31 93 -31 12 0 24 -7 27 -15 4 -8 12 -15 18 -15 26 0
301 -138 322 -162 10 -10 25 -18 36 -18 10 0 18 -4 18 -9 0 -5 13 -14 29 -21
16 -6 38 -22 49 -34 16 -19 29 -23 73 -22 l54 1 6 44 c11 87 -14 395 -45 536
-8 39 -15 89 -16 112 0 23 -4 44 -9 47 -5 4 -12 25 -16 49 -4 23 -11 47 -15
52 -4 6 -13 46 -20 90 -6 44 -13 88 -15 98 -2 9 1 15 6 11 5 -3 9 -11 9 -18 0
-8 7 -19 15 -26 8 -7 15 -20 15 -30 0 -10 6 -23 14 -29 8 -7 18 -38 21 -69 4
-31 13 -66 20 -77 7 -11 15 -38 17 -60 3 -22 16 -83 30 -135 14 -52 29 -131
32 -175 4 -44 14 -118 22 -164 21 -124 19 -369 -5 -462 -31 -126 -33 -145 -16
-163 18 -18 105 -23 105 -6 0 6 5 10 11 10 6 0 29 13 52 29 47 33 108 46 168
36 50 -9 149 -96 149 -133 0 -13 7 -37 16 -54 22 -42 22 -119 1 -152 -9 -14
-17 -32 -17 -41 0 -8 -3 -15 -8 -15 -4 0 -22 -13 -40 -30 -18 -17 -42 -30 -53
-30 -11 0 -27 -7 -35 -15 -9 -8 -31 -15 -49 -15 -19 0 -37 -4 -40 -10 -3 -6
-53 -10 -113 -10 -125 0 -143 -7 -119 -43 18 -28 65 -37 181 -37 146 1 267 48
331 129 11 14 29 35 40 46 18 18 20 33 19 154 0 114 -3 135 -17 143 -9 5 -17
13 -17 18 0 16 -44 75 -80 108 -76 69 -81 75 -73 96 14 37 7 248 -10 331 -9
44 -17 95 -17 113 0 18 -7 40 -15 48 -16 16 -21 84 -6 84 12 0 181 -345 181
-369 0 -21 29 -43 49 -36 16 5 17 11 9 50 -13 61 -8 107 11 95 10 -5 18 -36
22 -86 8 -81 25 -112 55 -100 15 6 16 18 10 114 -7 101 -20 166 -52 255 -8 20
-14 47 -14 60 0 12 -7 35 -16 52 -8 16 -18 50 -21 75 -3 25 -12 49 -20 53 -7
4 -13 19 -13 32 0 13 -4 26 -9 29 -4 3 -14 27 -21 53 -7 27 -19 57 -26 67 -7
11 -21 43 -30 73 -9 29 -20 53 -24 53 -4 0 -13 20 -20 45 -7 25 -16 45 -20 45
-4 0 -13 19 -20 43 -8 23 -22 53 -32 66 -10 13 -18 30 -18 37 0 8 -13 33 -30
56 -16 22 -30 46 -30 53 0 7 -9 20 -20 30 -11 10 -20 26 -20 37 0 10 -4 18 -9
18 -4 0 -25 25 -45 55 -20 30 -41 55 -46 55 -6 0 -10 5 -10 11 0 16 -71 101
-162 193 -43 44 -78 83 -78 87 0 4 -8 10 -17 13 -10 4 -40 26 -67 51 -26 25
-52 45 -57 45 -5 0 -14 9 -21 20 -7 11 -18 20 -25 20 -7 0 -23 9 -36 21 -23
19 -52 36 -127 76 -19 10 -42 26 -52 36 -10 9 -24 17 -32 17 -17 0 -89 40 -94
52 -2 4 -13 8 -24 8 -12 0 -39 9 -62 19 -51 24 -152 58 -231 77 -33 8 -80 21
-105 28 -25 8 -83 19 -130 26 -47 6 -94 15 -105 20 -56 25 -529 37 -781 20z
m1484 -887 c18 -21 40 -47 50 -58 9 -11 26 -37 37 -59 11 -21 25 -41 32 -43 7
-3 13 -13 13 -23 0 -9 9 -29 20 -43 11 -14 20 -29 20 -34 0 -4 13 -35 29 -68
16 -33 35 -81 42 -107 6 -26 15 -45 20 -42 5 3 9 -15 9 -39 0 -24 7 -58 16
-76 24 -48 44 -209 43 -346 -1 -125 -7 -166 -26 -172 -10 -4 -13 18 -29 267
-3 47 -11 99 -19 115 -7 17 -19 64 -25 105 -7 41 -16 80 -20 85 -4 6 -15 35
-25 65 -9 30 -23 70 -32 88 -8 18 -17 49 -20 68 -3 18 -9 34 -13 34 -7 0 -60
110 -60 124 0 4 -9 16 -20 28 -11 12 -20 28 -20 36 0 8 -9 25 -20 39 -11 14
-20 31 -20 38 0 7 -7 18 -15 25 -16 13 -20 30 -7 30 4 0 22 -17 40 -37z
m-2111 -45 c6 -7 16 -51 22 -98 7 -47 19 -114 28 -150 8 -36 19 -99 24 -140 5
-41 14 -97 20 -125 6 -27 14 -81 19 -119 5 -38 13 -72 18 -75 5 -3 12 -48 14
-99 4 -68 10 -96 21 -105 15 -11 21 -29 18 -53 0 -6 -20 -20 -43 -30 -24 -10
-50 -26 -59 -34 -8 -8 -44 -39 -80 -68 -35 -28 -72 -62 -82 -75 -9 -12 -33
-42 -52 -65 -19 -24 -35 -50 -35 -57 0 -7 -6 -18 -14 -25 -15 -12 -78 -137
-91 -178 -3 -12 -15 -27 -26 -32 -17 -10 -19 -7 -19 32 1 50 15 162 30 233 8
40 19 59 55 91 24 23 56 49 70 58 14 9 23 21 20 26 -4 6 0 10 8 10 19 0 137
113 137 132 0 18 -20 38 -38 38 -8 0 -31 -13 -52 -30 -21 -16 -42 -30 -47 -30
-4 0 -14 -9 -21 -20 -7 -11 -19 -20 -27 -20 -9 0 -18 -12 -21 -28 -5 -22 -12
-28 -35 -30 -33 -3 -36 10 -18 88 6 25 14 78 18 118 4 41 12 77 18 80 6 4 13
43 16 87 7 88 9 97 25 138 7 16 12 42 12 58 0 35 27 156 40 181 6 9 12 36 16
60 3 24 17 75 30 115 13 39 24 78 24 87 0 50 35 82 57 54z m1543 -26 c0 -4 23
-31 50 -59 28 -28 50 -56 50 -62 0 -5 9 -13 20 -16 11 -3 20 -11 20 -17 0 -5
21 -36 48 -68 26 -31 61 -74 77 -95 17 -21 36 -44 43 -51 6 -7 12 -18 12 -24
0 -6 5 -8 10 -5 6 3 10 2 10 -3 0 -5 24 -40 54 -79 29 -38 57 -80 61 -93 8
-25 15 -24 -102 -5 -36 6 -44 5 -49 -10 -9 -24 20 -45 62 -45 19 0 34 -6 38
-15 3 -8 13 -15 23 -15 10 0 27 -7 37 -15 11 -8 28 -15 39 -15 21 0 77 -54 77
-74 0 -7 -10 -18 -23 -25 -19 -10 -35 -8 -102 17 -44 16 -110 33 -146 36 -65
7 -67 7 -95 -23 -16 -17 -32 -31 -36 -31 -16 0 -38 34 -38 59 0 15 -4 31 -10
37 -5 5 -12 45 -15 89 -9 131 -15 173 -41 269 -14 50 -27 107 -30 126 -4 19
-15 53 -25 76 -10 22 -19 53 -19 68 0 15 -4 25 -9 21 -12 -7 -25 31 -16 45 7
12 25 13 25 2z m957 -204 c-3 -8 -6 -5 -6 6 -1 11 2 17 5 13 3 -3 4 -12 1 -19z
m-314 -147 c15 -6 27 -18 27 -27 0 -15 -9 -16 -72 -11 -157 13 -208 20 -208
28 0 5 -8 9 -17 10 -16 0 -15 2 2 10 26 12 232 4 268 -10z"/>
<path d="M4012 4649 c-33 -6 -63 -18 -80 -34 -15 -14 -30 -25 -34 -25 -5 0 -8
-6 -8 -14 0 -8 -9 -18 -20 -21 -14 -4 -20 -15 -20 -36 0 -17 -7 -44 -16 -60
-18 -35 -16 -95 3 -124 7 -11 13 -32 13 -47 0 -30 19 -78 31 -78 4 0 11 -9 14
-20 4 -12 23 -37 42 -57 88 -87 234 -112 339 -57 30 16 54 31 54 35 0 4 7 14
14 22 8 8 25 32 36 53 29 51 30 190 2 244 -48 91 -66 119 -88 131 -13 7 -24
16 -24 21 0 4 -7 8 -15 8 -8 0 -15 4 -15 8 0 15 -84 50 -130 55 -25 3 -69 1
-98 -4z"/>
<path d="M2571 4495 c-52 -26 -121 -98 -121 -125 0 -11 -7 -23 -16 -28 -13 -7
-15 -26 -12 -117 2 -75 7 -110 16 -113 6 -2 12 -10 12 -17 0 -24 86 -105 112
-105 12 0 32 -7 42 -15 26 -19 115 -19 152 0 16 8 37 15 47 15 25 0 99 52 131
92 14 18 30 38 35 44 41 51 38 217 -5 264 -64 71 -83 87 -114 97 -19 7 -43 13
-52 13 -10 0 -18 5 -18 10 0 6 -33 9 -82 9 -64 -1 -93 -7 -127 -24z"/>
<path d="M5105 4031 c-27 -11 -50 -39 -41 -49 4 -4 67 -8 140 -10 116 -3 135
-1 154 15 16 13 19 22 12 33 -7 12 -35 15 -127 17 -65 2 -127 -1 -138 -6z"/>
<path d="M4915 3800 c-4 -6 -9 -36 -12 -68 -4 -35 -16 -74 -33 -102 -15 -25
-33 -63 -39 -83 -7 -20 -16 -37 -21 -37 -5 0 -16 -15 -25 -34 -9 -19 -23 -37
-31 -40 -8 -3 -14 -11 -14 -18 0 -7 -17 -26 -37 -43 -20 -16 -48 -41 -62 -55
-14 -14 -38 -31 -53 -37 -16 -7 -28 -17 -28 -23 0 -5 -11 -10 -24 -10 -13 0
-29 -7 -36 -15 -7 -9 -32 -25 -54 -36 -23 -11 -52 -27 -66 -34 -14 -8 -35 -15
-46 -15 -12 0 -27 -6 -33 -14 -6 -7 -44 -23 -84 -36 -39 -12 -85 -28 -102 -35
-36 -17 -189 -50 -345 -75 -175 -28 -258 -44 -266 -53 -4 -4 2 -24 14 -45 18
-32 19 -44 11 -81 -14 -62 6 -149 38 -164 29 -13 29 -29 -2 -75 -14 -20 -25
-41 -25 -47 -1 -5 -11 -23 -24 -39 -22 -27 -27 -28 -75 -21 -28 4 -53 11 -57
16 -3 5 -22 9 -43 9 -42 0 -132 28 -143 44 -4 6 -8 55 -8 109 0 53 -4 97 -8
97 -4 0 -14 21 -21 46 -9 31 -21 48 -36 54 -13 5 -37 29 -55 53 -32 44 -32 44
-103 49 -40 3 -83 11 -97 18 -14 8 -52 24 -85 36 -33 12 -76 27 -95 34 -19 7
-42 17 -50 21 -8 5 -43 23 -77 40 -35 17 -63 35 -63 40 0 5 -18 17 -40 26 -22
10 -40 21 -40 25 0 5 -6 8 -14 8 -20 0 -166 147 -166 168 -1 26 -46 76 -63 69
-17 -6 -14 -31 9 -84 8 -17 14 -36 14 -41 0 -21 148 -182 168 -182 6 0 12 -4
12 -9 0 -5 16 -16 35 -25 19 -9 37 -21 40 -26 6 -10 33 -25 115 -64 19 -10 42
-22 50 -27 8 -5 27 -14 43 -20 46 -18 33 -37 -30 -44 -60 -6 -154 -45 -183
-75 -3 -3 -17 -11 -32 -17 -16 -7 -28 -16 -28 -21 0 -4 -14 -22 -30 -40 -16
-18 -30 -39 -30 -46 0 -8 -7 -19 -15 -26 -8 -6 -27 -51 -42 -98 -24 -76 -28
-103 -28 -208 l0 -122 41 -48 c32 -38 48 -49 70 -49 38 0 41 21 13 82 -19 43
-21 59 -16 158 9 174 62 289 169 362 68 47 150 64 296 62 82 -1 116 1 122 11
11 18 129 -38 135 -65 9 -42 12 -154 5 -165 -6 -9 -13 -9 -31 0 -13 7 -26 16
-29 19 -3 4 -17 14 -32 24 -20 13 -28 26 -28 47 0 16 -5 41 -12 55 -10 23 -16
26 -57 23 -40 -3 -46 -6 -49 -28 -2 -14 -9 -31 -14 -37 -7 -9 -7 -13 1 -13 6
0 11 -9 11 -21 0 -25 142 -167 176 -175 13 -3 24 -10 24 -15 0 -5 9 -9 20 -9
11 0 20 -4 20 -10 0 -5 9 -10 21 -10 11 0 33 -6 47 -14 64 -34 104 -45 217
-60 66 -9 131 -18 145 -20 18 -3 33 5 57 31 18 19 33 41 33 48 0 8 6 18 14 22
7 4 23 26 35 48 56 103 74 132 102 161 37 39 36 68 -6 100 l-30 23 -33 -25
c-19 -15 -32 -34 -32 -48 0 -12 -7 -31 -15 -42 -13 -16 -16 -17 -25 -4 -13 18
-6 178 8 192 13 13 68 25 174 38 47 6 101 17 120 24 18 8 65 17 105 21 43 4
74 12 76 20 3 7 27 16 54 20 26 4 66 15 88 25 22 10 59 24 83 31 23 7 47 18
53 26 6 7 16 13 21 13 16 0 81 32 103 50 11 10 31 20 45 23 14 4 34 13 45 22
99 75 173 138 190 160 11 14 30 36 43 47 12 12 22 26 22 32 0 6 16 25 37 42
32 27 37 37 41 87 2 31 8 57 12 57 8 0 18 51 26 133 3 34 0 52 -10 62 -17 18
-23 18 -31 5z"/>
<path d="M1684 3691 c-45 -11 -54 -19 -54 -48 0 -22 3 -24 23 -17 12 4 71 9
131 11 87 4 111 1 125 -11 9 -9 28 -17 42 -18 35 -4 33 38 -4 66 -23 17 -44
21 -130 23 -56 1 -116 -2 -133 -6z"/>
<path d="M3200 3680 c-29 -13 -60 -39 -60 -52 0 -4 68 -8 151 -8 83 0 159 -4
169 -10 19 -10 132 -28 222 -35 50 -4 64 9 53 46 -5 15 -16 19 -48 19 -23 0
-71 9 -107 20 -77 24 -338 38 -380 20z"/>
<path d="M4083 2848 c-29 -14 -37 -52 -18 -82 23 -35 40 -38 100 -17 l55 19
35 -40 c19 -23 42 -63 50 -89 9 -27 21 -51 26 -54 5 -4 9 -17 9 -30 0 -13 9
-48 19 -77 22 -61 36 -179 51 -425 9 -144 8 -189 -5 -280 -17 -110 -24 -126
-62 -137 -18 -6 -25 -1 -37 23 -9 16 -19 31 -24 33 -11 4 -82 115 -82 128 0 6
-9 20 -20 33 -43 48 -50 57 -50 67 0 5 -9 14 -19 20 -11 5 -23 19 -26 30 -3
11 -13 20 -21 20 -8 0 -14 5 -14 12 0 15 -129 138 -146 138 -3 0 -24 13 -47
29 -29 20 -60 32 -98 36 -86 11 -114 1 -138 -47 -11 -23 -18 -45 -15 -50 3 -4
-9 -8 -26 -8 -16 0 -39 -5 -49 -12 -15 -9 -25 -9 -46 0 -16 7 -78 12 -161 12
l-135 0 -50 -42 c-27 -22 -49 -45 -49 -51 0 -5 -10 -23 -22 -40 -13 -18 -28
-45 -34 -62 -30 -77 -57 -143 -73 -180 -10 -22 -21 -48 -24 -57 -4 -10 -11
-18 -16 -18 -5 0 -12 -12 -15 -26 -8 -29 -75 -134 -86 -134 -4 0 -11 -11 -14
-25 -6 -25 -20 -30 -76 -25 -26 2 -129 75 -137 97 -3 7 -10 13 -15 13 -9 0
-188 173 -188 182 0 2 -29 34 -65 71 -35 38 -70 82 -77 98 -7 16 -16 29 -20
29 -4 0 -14 12 -22 28 -26 49 -63 81 -87 75 -19 -5 -21 -11 -17 -59 3 -31 12
-62 21 -72 9 -10 17 -24 17 -31 0 -15 66 -103 86 -114 8 -4 14 -14 14 -20 0
-22 319 -337 340 -337 5 0 22 -12 37 -26 53 -49 140 -67 196 -40 40 19 109 90
132 136 10 18 24 40 32 48 8 8 17 27 20 43 3 15 11 30 19 33 8 3 14 13 14 23
0 10 11 36 25 58 13 22 25 47 25 55 0 9 9 33 20 55 11 22 20 45 20 52 0 7 7
13 15 13 8 0 15 9 15 21 0 20 14 52 32 73 5 6 15 20 23 31 13 19 23 20 157 17
79 -1 159 -6 178 -10 19 -5 49 -4 68 2 29 8 32 13 32 48 0 21 5 38 10 38 6 0
19 9 30 20 17 17 28 19 63 14 23 -4 46 -13 50 -20 4 -8 12 -14 17 -14 14 0 70
-41 120 -88 25 -23 48 -42 52 -42 5 0 8 -5 8 -11 0 -6 20 -32 45 -57 25 -25
45 -49 45 -53 0 -5 13 -23 29 -41 15 -18 31 -43 35 -55 4 -13 12 -23 17 -23 5
0 9 -7 9 -15 0 -8 4 -15 10 -15 5 0 13 -18 16 -40 8 -52 45 -78 81 -59 24 13
30 12 93 -15 9 -4 34 6 62 24 40 27 48 38 67 98 19 61 21 90 21 297 0 126 -4
242 -9 259 -6 17 -15 76 -21 131 -6 55 -20 121 -31 147 -10 26 -19 55 -19 64
0 10 -9 36 -19 58 -11 23 -26 58 -35 79 -8 20 -20 37 -26 37 -6 0 -8 5 -5 10
3 6 1 10 -4 10 -6 0 -11 9 -11 20 0 11 -7 20 -15 20 -7 0 -18 6 -22 13 -20 33
-169 50 -220 25z"/>
<path d="M4705 2332 c-30 -22 -48 -103 -25 -117 6 -3 10 -15 10 -26 0 -17 93
-186 120 -216 5 -7 15 -25 22 -40 7 -15 25 -44 40 -64 15 -20 28 -43 28 -52 0
-8 9 -26 20 -40 11 -14 20 -30 20 -36 0 -6 10 -28 23 -49 28 -45 87 -167 87
-180 0 -5 6 -15 14 -21 8 -7 17 -23 20 -37 4 -13 17 -48 30 -77 13 -28 27 -65
30 -82 4 -16 13 -37 20 -45 6 -8 23 -42 35 -75 13 -33 30 -67 37 -76 8 -8 14
-25 14 -37 0 -21 19 -73 31 -82 3 -3 9 -22 13 -42 4 -21 18 -57 31 -80 14 -24
25 -53 25 -66 0 -20 16 -58 30 -72 3 -3 11 -23 17 -45 17 -60 51 -156 68 -192
8 -17 18 -46 22 -65 3 -18 14 -45 24 -60 11 -14 19 -37 19 -50 0 -12 9 -43 20
-67 11 -24 20 -49 20 -56 0 -8 6 -20 14 -27 7 -8 17 -38 21 -66 4 -35 12 -52
21 -52 8 0 14 -9 14 -20 0 -18 7 -20 55 -20 l55 0 -6 33 c-4 17 -12 41 -19 52
-7 11 -16 36 -20 55 -4 19 -14 51 -23 70 -27 61 -42 104 -42 123 0 9 -9 34
-20 54 -11 21 -20 50 -20 66 0 15 -7 30 -15 33 -8 4 -15 15 -15 25 0 11 -6 30
-14 42 -8 12 -20 46 -27 75 -7 28 -16 52 -20 52 -3 0 -12 21 -19 48 -7 26 -18
56 -25 67 -7 11 -18 44 -25 73 -8 28 -17 52 -21 52 -9 0 -29 57 -29 82 0 11
-9 31 -20 45 -11 14 -20 34 -20 44 0 10 -14 49 -31 86 -63 134 -69 151 -69
177 0 14 -4 26 -8 26 -9 0 -39 58 -62 120 -8 19 -20 39 -27 43 -7 4 -13 16
-13 26 0 16 -97 218 -118 244 -5 6 -13 23 -17 37 -4 14 -16 34 -26 45 -10 11
-25 37 -34 58 -8 20 -19 37 -24 37 -5 0 -12 13 -16 29 -3 16 -13 35 -21 42 -8
6 -14 18 -14 25 0 8 -7 14 -15 14 -8 0 -15 5 -15 12 0 7 -12 25 -27 41 -25 26
-28 34 -25 92 2 56 0 65 -20 79 -24 17 -47 20 -63 8z"/>
<path d="M2020 1712 c0 -4 -16 -25 -35 -46 -40 -44 -95 -149 -95 -182 0 -13
-9 -38 -20 -56 -11 -18 -20 -45 -20 -59 0 -14 -13 -70 -30 -125 -16 -54 -30
-113 -30 -130 0 -16 -4 -34 -9 -40 -11 -12 -31 -117 -31 -163 0 -20 -6 -45
-14 -56 -7 -11 -16 -33 -19 -50 -35 -173 -47 -229 -60 -280 -20 -77 -44 -189
-62 -290 -8 -44 -19 -94 -25 -111 -5 -16 -14 -51 -19 -77 l-8 -47 51 0 c62 0
62 0 100 180 15 69 29 135 31 148 3 12 10 22 15 22 6 0 10 23 10 51 0 54 17
138 31 154 5 5 9 25 9 45 0 20 11 79 25 131 14 51 31 128 36 169 6 41 17 85
25 97 8 12 14 42 14 67 0 25 4 55 9 68 14 37 37 125 66 248 34 142 64 205 101
214 49 13 70 69 40 109 -13 17 -86 25 -86 9z"/>
</g>
</svg>
